<svg xmlns:xlink="http://www.w3.org/1999/xlink" xmlns="http://www.w3.org/2000/svg" id="Layer_1" data-name="Layer 1" viewBox="0 0 241.35 287.03" width="241.35"  height="287.03" >
  <defs>
    <style>
      .cls-1 {
        fill: #ede5d3;
      }
    </style>
  </defs>
  <path class="cls-1" d="m210.75,61.38c-.8-.55-1.57-1.07-2.34-1.6.55-5.89-.45-11.86-1.58-15.25-6.48-19.45-34.29-31.46-56.48-38.12-28.73-8.62-58.57-8.54-84.33.19l-.03-.03-2.3.83c-3.33,1.21-6.61,2.57-9.75,4.05-9.47,4.46-22.13,12.73-28.65,26.8-4.85,10.45-4.62,24.44.56,34.02,2.1,3.88,4.79,6.56,8.01,7.98,1.88.83,3.98,1.24,6.37,1.24,1.38,0,2.86-.14,4.44-.42,2.12-.37,4.17-.9,6.17-1.53,1.03,4.19,2.26,8.36,3.64,12.5-11.07,4.72-21.89,10.3-30.42,19.46-10.85,11.65-18.1,29.06-21.56,51.74C-.57,183.45-.18,204.77.39,219.06c.66,16.83,3.37,30.46,14.4,42.33,9.47,10.19,23.41,17.16,41.41,20.7l2.59.51c10.04,2,22.31,4.44,34.16,4.43,15.37,0,30.02-4.1,38.17-18.6,1.22-2.16,2.25-4.4,3.14-6.69,10.21-3.09,20.28-8.02,29.36-14.49,25.89-18.44,43.71-48.45,47.67-80.27.63-5.02.8-10.16.57-15.32,1.07-1.2,2.16-2.41,3.28-3.66,11.68-12.96,24.92-27.66,26.14-45.39,1.35-19.57-16.32-31.58-30.52-41.24Zm-154.23,7.52c-2.32-14.43-.52-25.39,5.36-32.59,8.1-9.91,23.77-12.31,36.53-13.29,14.27-1.1,29.39,1.33,44.96,7.22,20.85,7.9,39.39,20.63,56.59,33.01-.54,1.69-1.34,3.12-2.47,4.08-3.79,3.2-11.19.37-16.73-2.57-6.22-3.31-11.94-7-17.47-10.57-20-12.93-38.9-25.14-70.2-9.11-6.51,3.33-12.65,7.79-18.6,12.11-6.03,4.37-11.86,8.6-17.98,11.73Zm-13.16,4.6c-2.76.48-4.85.39-6.38-.29-2.03-.89-3.49-3-4.36-4.61-4.04-7.46-4.19-18.87-.35-27.13,4.33-9.34,13.2-17.54,24.96-23.08,2.56-1.21,5.22-2.33,7.93-3.35l1.17-.42c24.73-8.96,53.79-9.27,81.82-.86,16.74,5.02,45.68,16.01,51.4,33.19.62,1.86,1.11,4.58,1.27,7.46-16.6-11.84-34.49-23.69-54.74-31.36-16.63-6.3-32.87-8.88-48.27-7.7-14.28,1.1-31.95,3.93-41.89,16.09-7.6,9.3-9.83,22.94-6.67,40.54-1.92.64-3.88,1.16-5.89,1.51Zm81.06,191.16c-11.71,20.82-42.01,14.8-64.14,10.4l-2.6-.52c-16.38-3.22-28.92-9.41-37.27-18.39-9.42-10.14-11.75-22.28-12.35-37.4-1.28-32.45-.43-78.33,21.63-102.02,7.41-7.96,17.2-13.07,27.35-17.43,2.34,6.32,4.95,12.57,7.61,18.76-2.01,2.32-3.91,4.69-5.69,7.12-14.95,20.44-21.25,44.05-18.7,70.17,2.27,23.34,13.89,44.87,31.08,57.59,11.15,8.25,24.49,12.51,38.96,12.51,2.66,0,5.36-.14,8.08-.43,2.1-.22,4.22-.54,6.34-.94-.11.2-.21.4-.32.59Zm-36.17-179.3c10.05-5.47,19.36-11.6,27.9-17.22,14.48-9.53,23.08-5.82,32.81,5.16-3.74-.08-7.56.19-11.45.86-13.66,2.35-25.94,8.62-36.16,14.44-11.97,6.83-22.33,14.63-30.97,23.29-2.18-5.15-4.3-10.34-6.23-15.55.77-.31,1.54-.62,2.3-.93,1.8-.72,3.59-1.44,5.35-2.17.31-.13.63-.26.95-.39l17.97-7.5h-2.47Zm-20.18,40.57c1.7,3.91,3.45,7.93,5.08,11.82,2.37,5.66,4.77,11.27,7.12,16.67h0c4.45,10.21,9.07,20.45,13.75,30.44,1.13,2.4,2.2,4.9,3.35,7.55,4.62,10.7,9.85,22.82,19.56,30.47,4.54,3.57,9.36,5.28,14.2,5.58.36,8.81-.14,18.39-2.88,27.17-21.78,5.35-40.62-.21-52.34-8.88-15.47-11.45-25.94-30.95-28.01-52.16-2.35-24.19,3.45-46.02,17.26-64.89.93-1.27,1.91-2.52,2.91-3.76Zm68.86,82.52c-.34-2.66-.63-4.95-.77-6.68-.62-7.79-1.51-35.21,13.22-60.87,11.95-20.81,16.69-42.3,13.46-57.4,6.34,2.22,12.24,5.87,17.53,10.93,13.3,12.7,22.06,33.56,23.66,54.5-1.11,1.28-2.2,2.54-3.24,3.81l-44.78,54.56c-6.11,7.44-12.21,11.29-17.75,12.74-.39-4.25-.89-8.18-1.33-11.58Zm5.78-71.38c-15.83,27.58-14.88,56.96-14.21,65.3.15,1.92.46,4.29.81,7.05.42,3.27.9,7.05,1.28,11.14-3.47-.45-6.51-1.83-8.92-3.72-8.18-6.44-12.8-17.13-17.26-27.47-1.11-2.58-2.27-5.25-3.44-7.76-4.65-9.93-9.25-20.11-13.66-30.25h0c-2.34-5.37-4.72-10.94-7.08-16.57-1.74-4.15-3.6-8.43-5.4-12.57-.39-.89-.78-1.79-1.17-2.69,8.56-9.06,19.1-17.18,31.49-24.25,9.63-5.49,21.16-11.4,33.66-13.55,2.99-.52,5.94-.77,8.83-.77,2.26,0,4.49.16,6.68.47,4.79,12.7.45,34.64-11.61,55.65Zm16.44,103.91c-7.57,5.39-15.02,9.29-22.23,11.96,1.91-8.44,2.22-17.15,1.87-25.16,8.68-2.02,16.94-8.05,23.15-15.63l42.19-51.41c-.1,1.77-.26,3.53-.48,5.27-3.7,29.72-20.34,57.75-44.51,74.97Zm74.45-138.91c-.99,14.43-12.29,27.55-22.76,39.2-3.02-20.34-12.1-39.92-25.18-52.4-7.72-7.37-16.55-12.16-26.13-14.31-.69-1.21-1.45-2.35-2.3-3.39-10.88-13.24-23.9-23.56-45.31-9.45-13.03,8.58-26.51,17.46-41.88,23.94l-1.15.48c-1.76.72-3.54,1.44-5.32,2.15-.66.26-1.31.53-1.97.79-1.36-4.13-2.56-8.28-3.54-12.42,7.47-3.54,14.27-8.47,20.93-13.3,5.97-4.33,11.61-8.42,17.59-11.48,27.35-14.01,42.88-3.97,62.53,8.73,5.66,3.66,11.52,7.44,18.03,10.91,11.11,5.9,19.62,6.46,25.29,1.66,1.76-1.49,3.04-3.37,3.98-5.46,0,0,0,0,0,0,13.23,9,28.22,19.19,27.18,34.36Z"/>
</svg>