<svg xmlns="http://www.w3.org/2000/svg" xmlns:xlink="http://www.w3.org/1999/xlink" version="1.1" id="Layer_1" x="0px" y="0px" viewBox="0 0 300 300" style="enable-background:new 0 0 300 300;" xml:space="preserve" width="300"  height="300" >
<style type="text/css">
	.st0{fill:#FFFFFF;}
</style>
<path class="st0" d="M240.1,67.9c-0.8-0.5-1.6-1.1-2.3-1.6c0.6-5.9-0.4-11.9-1.6-15.3c-6.5-19.4-34.3-31.5-56.5-38.1  c-28.7-8.6-58.6-8.5-84.3,0.2l0,0L93,13.9c-3.3,1.2-6.6,2.6-9.7,4.1c-9.5,4.5-22.1,12.7-28.6,26.8c-4.9,10.5-4.6,24.4,0.6,34  c2.1,3.9,4.8,6.6,8,8c1.9,0.8,4,1.2,6.4,1.2c1.4,0,2.9-0.1,4.4-0.4c2.1-0.4,4.2-0.9,6.2-1.5c1,4.2,2.3,8.4,3.6,12.5  c-11.1,4.7-21.9,10.3-30.4,19.5c-10.8,11.6-18.1,29.1-21.6,51.7c-3.1,20.2-2.7,41.5-2.1,55.8c0.7,16.8,3.4,30.5,14.4,42.3  c9.5,10.2,23.4,17.2,41.4,20.7l2.6,0.5c10,2,22.3,4.4,34.2,4.4c15.4,0,30-4.1,38.2-18.6c1.2-2.2,2.3-4.4,3.1-6.7  c10.2-3.1,20.3-8,29.4-14.5c25.9-18.4,43.7-48.5,47.7-80.3c0.6-5,0.8-10.2,0.6-15.3c1.1-1.2,2.2-2.4,3.3-3.7  c11.7-13,24.9-27.7,26.1-45.4C271.9,89.5,254.3,77.5,240.1,67.9z M85.8,75.4C83.5,61,85.3,50,91.2,42.8c8.1-9.9,23.8-12.3,36.5-13.3  c14.3-1.1,29.4,1.3,45,7.2c20.9,7.9,39.4,20.6,56.6,33c-0.5,1.7-1.3,3.1-2.5,4.1c-3.8,3.2-11.2,0.4-16.7-2.6  c-6.2-3.3-11.9-7-17.5-10.6c-20-12.9-38.9-25.1-70.2-9.1c-6.5,3.3-12.7,7.8-18.6,12.1C97.8,68,92,72.3,85.8,75.4z M72.7,80  c-2.8,0.5-4.8,0.4-6.4-0.3c-2-0.9-3.5-3-4.4-4.6c-4-7.5-4.2-18.9-0.4-27.1c4.3-9.3,13.2-17.5,25-23.1c2.6-1.2,5.2-2.3,7.9-3.3  l1.2-0.4c24.7-9,53.8-9.3,81.8-0.9c16.7,5,45.7,16,51.4,33.2c0.6,1.9,1.1,4.6,1.3,7.5c-16.6-11.8-34.5-23.7-54.7-31.4  c-16.6-6.3-32.9-8.9-48.3-7.7c-14.3,1.1-31.9,3.9-41.9,16.1c-7.6,9.3-9.8,22.9-6.7,40.5C76.7,79.1,74.7,79.6,72.7,80z M153.7,271.2  c-11.7,20.8-42,14.8-64.1,10.4L87,281c-16.4-3.2-28.9-9.4-37.3-18.4c-9.4-10.1-11.8-22.3-12.4-37.4c-1.3-32.4-0.4-78.3,21.6-102  c7.4-8,17.2-13.1,27.4-17.4c2.3,6.3,5,12.6,7.6,18.8c-2,2.3-3.9,4.7-5.7,7.1c-15,20.4-21.2,44.1-18.7,70.2  c2.3,23.3,13.9,44.9,31.1,57.6c11.1,8.2,24.5,12.5,39,12.5c2.7,0,5.4-0.1,8.1-0.4c2.1-0.2,4.2-0.5,6.3-0.9  C154,270.8,153.9,271,153.7,271.2z M117.6,91.9c10.1-5.5,19.4-11.6,27.9-17.2c14.5-9.5,23.1-5.8,32.8,5.2c-3.7-0.1-7.6,0.2-11.5,0.9  c-13.7,2.4-25.9,8.6-36.2,14.4c-12,6.8-22.3,14.6-31,23.3c-2.2-5.1-4.3-10.3-6.2-15.5c0.8-0.3,1.5-0.6,2.3-0.9  c1.8-0.7,3.6-1.4,5.3-2.2c0.3-0.1,0.6-0.3,0.9-0.4l18-7.5H117.6z M97.4,132.4c1.7,3.9,3.4,7.9,5.1,11.8c2.4,5.7,4.8,11.3,7.1,16.7v0  c4.4,10.2,9.1,20.4,13.7,30.4c1.1,2.4,2.2,4.9,3.3,7.5c4.6,10.7,9.9,22.8,19.6,30.5c4.5,3.6,9.4,5.3,14.2,5.6  c0.4,8.8-0.1,18.4-2.9,27.2c-21.8,5.4-40.6-0.2-52.3-8.9c-15.5-11.4-25.9-30.9-28-52.2c-2.4-24.2,3.5-46,17.3-64.9  C95.4,134.9,96.4,133.7,97.4,132.4z M166.3,215c-0.3-2.7-0.6-4.9-0.8-6.7c-0.6-7.8-1.5-35.2,13.2-60.9  c11.9-20.8,16.7-42.3,13.5-57.4c6.3,2.2,12.2,5.9,17.5,10.9c13.3,12.7,22.1,33.6,23.7,54.5c-1.1,1.3-2.2,2.5-3.2,3.8l-44.8,54.6  c-6.1,7.4-12.2,11.3-17.7,12.7C167.2,222.3,166.7,218.4,166.3,215z M172,143.6c-15.8,27.6-14.9,57-14.2,65.3c0.2,1.9,0.5,4.3,0.8,7  c0.4,3.3,0.9,7.1,1.3,11.1c-3.5-0.4-6.5-1.8-8.9-3.7c-8.2-6.4-12.8-17.1-17.3-27.5c-1.1-2.6-2.3-5.2-3.4-7.8  c-4.6-9.9-9.2-20.1-13.7-30.3v0c-2.3-5.4-4.7-10.9-7.1-16.6c-1.7-4.2-3.6-8.4-5.4-12.6c-0.4-0.9-0.8-1.8-1.2-2.7  c8.6-9.1,19.1-17.2,31.5-24.3c9.6-5.5,21.2-11.4,33.7-13.5c3-0.5,5.9-0.8,8.8-0.8c2.3,0,4.5,0.2,6.7,0.5  C188.4,100.6,184.1,122.6,172,143.6z M188.5,247.5c-7.6,5.4-15,9.3-22.2,12c1.9-8.4,2.2-17.1,1.9-25.2c8.7-2,16.9-8.1,23.2-15.6  l42.2-51.4c-0.1,1.8-0.3,3.5-0.5,5.3C229.3,202.2,212.7,230.3,188.5,247.5z M262.9,108.6c-1,14.4-12.3,27.5-22.8,39.2  c-3-20.3-12.1-39.9-25.2-52.4c-7.7-7.4-16.6-12.2-26.1-14.3c-0.7-1.2-1.4-2.3-2.3-3.4c-10.9-13.2-23.9-23.6-45.3-9.5  c-13,8.6-26.5,17.5-41.9,23.9l-1.1,0.5c-1.8,0.7-3.5,1.4-5.3,2.2c-0.7,0.3-1.3,0.5-2,0.8c-1.4-4.1-2.6-8.3-3.5-12.4  c7.5-3.5,14.3-8.5,20.9-13.3c6-4.3,11.6-8.4,17.6-11.5c27.4-14,42.9-4,62.5,8.7c5.7,3.7,11.5,7.4,18,10.9  c11.1,5.9,19.6,6.5,25.3,1.7c1.8-1.5,3-3.4,4-5.5c0,0,0,0,0,0C249,83.2,264,93.4,262.9,108.6z"/>
</svg>