<svg xmlns="http://www.w3.org/2000/svg" xmlns:xlink="http://www.w3.org/1999/xlink" viewBox="0 0 1280 1280" width="1280" height="1280" preserveAspectRatio="xMidYMid meet" style="width: 100%; height: 100%; transform: translate3d(0px, 0px, 0px); content-visibility: visible;"><defs><clipPath id="__lottie_element_33"><rect width="1280" height="1280" x="0" y="0"></rect></clipPath></defs><g clip-path="url(#__lottie_element_33)"><g transform="matrix(1,0,0,1,100,100)" opacity="1" style="display: block;"><g opacity="1" transform="matrix(1,0,0,1,423.7569885253906,624.3200073242188)"><path stroke-linecap="butt" stroke-linejoin="miter" fill-opacity="0" stroke-miterlimit="10" stroke="#FFFFFF" stroke-opacity="1" stroke-width="2px" d=" M157.96800231933594,4.980999946594238 C163.94900512695312,-28.799999237060547 175.39700317382812,-66.72599792480469 196.26699829101562,-103.08100128173828 C241.00100708007812,-181.0050048828125 255.43099975585938,-269.02899169921875 222.24200439453125,-309.4339904785156 C189.052001953125,-349.8380126953125 154.4199981689453,-375.81298828125 95.25199890136719,-336.8489990234375 C51.590999603271484,-308.09600830078125 9.34000015258789,-280.57000732421875 -38.895999908447266,-260.25201416015625 C-38.895999908447266,-260.25201416015625 -38.895999908447266,-260.25201416015625 -38.895999908447266,-260.25201416015625 C-40.13800048828125,-259.72900390625 -41.3849983215332,-259.2099914550781 -42.6349983215332,-258.6969909667969 C-91.0989990234375,-238.78900146484375 -143.23300170898438,-221.02099609375 -179.88699340820312,-181.656005859375 C-253.6840057373047,-102.4000015258789 -255.43099975585938,47.19200134277344 -251.41600036621094,149.11700439453125 C-249.56100463867188,196.2270050048828 -242.6699981689453,238.9499969482422 -209.20799255371094,274.96099853515625 C-177.21600341796875,309.3890075683594 -131.1439971923828,327.58099365234375 -85.03099822998047,336.656005859375 C-15.1850004196167,350.4020080566406 95.63300323486328,375.81298828125 138.54600524902344,299.52301025390625 C177.50799560546875,230.25799560546875 155.86300659179688,132.1320037841797 152.9759979248047,96.05599975585938 C152.3040008544922,87.65299987792969 151.86599731445312,76.58799743652344 152.156005859375,63.573001861572266"></path></g></g><g transform="matrix(1,0,0,1,100,100)" opacity="1" style="display: block;"><g opacity="1" transform="matrix(1,0,0,1,560.051025390625,617.77099609375)"><path stroke-linecap="butt" stroke-linejoin="miter" fill-opacity="0" stroke-miterlimit="10" stroke="#FFFFFF" stroke-opacity="1" stroke-width="2px" d=" M235.7760009765625,-152.927001953125 C203.8280029296875,-238.17599487304688 134.73399353027344,-306.39300537109375 35.09299850463867,-289.22900390625 C-4.10099983215332,-282.47698974609375 -40.53300094604492,-264.760009765625 -75.0790023803711,-245.052001953125 C-127.87799835205078,-214.9320068359375 -172.5260009765625,-177.55499267578125 -205.08999633789062,-133.031005859375 C-205.08999633789062,-133.031005859375 -205.08999633789062,-133.031005859375 -205.08999633789062,-133.031005859375 C-248.0290069580078,-74.32099914550781 -269.95599365234375,-3.184000015258789 -261.8529968261719,80.12999725341797 C-255.31500244140625,147.3459930419922 -222.88400268554688,213.18499755859375 -168.5970001220703,253.35499572753906 C-84.302001953125,315.72900390625 28.124000549316406,292.49798583984375 108.40399932861328,235.3000030517578 C187.8719940185547,178.67999267578125 241.8260040283203,87.01599884033203 253.8780059814453,-9.697999954223633 C257.5769958496094,-39.38100051879883 256.135986328125,-71.60600280761719 249.8489990234375,-103.30999755859375"></path></g></g><g transform="matrix(1,0,0,1,100,100)" opacity="1" style="display: block;"><g opacity="1" transform="matrix(1,0,0,1,615.698974609375,475.04998779296875)"><path stroke-linecap="butt" stroke-linejoin="miter" fill-opacity="0" stroke-miterlimit="10" stroke="#FFFFFF" stroke-opacity="1" stroke-width="2px" d=" M-71.14900207519531,-328.125 C-96.19200134277344,-332.41900634765625 -121.66799926757812,-333.9590148925781 -146.99899291992188,-332.00799560546875 C-189.36599731445312,-328.7439880371094 -242.2519989013672,-320.5140075683594 -270.7510070800781,-285.625 C-297.2019958496094,-253.24200439453125 -296.5989990234375,-206.69200134277344 -288.9580078125,-165.58299255371094 C-276.0679931640625,-96.23200225830078 -241.80999755859375,-27.42099952697754 -214.5919952392578,37.61600112915039 C-207.25,55.159000396728516 -199.77999877929688,72.64800262451172 -192.1840057373047,90.08300018310547 C-192.1840057373047,90.08300018310547 -192.1840057373047,90.08300018310547 -192.1840057373047,90.08300018310547 C-178.18899536132812,122.2020034790039 -163.76400756835938,154.13400268554688 -148.91299438476562,185.86700439453125 C-130.57899475097656,225.0399932861328 -115.2770004272461,273.76300048828125 -80.08599853515625,301.4700012207031 C-36.367000579833984,335.8559875488281 15.199999809265137,305.97100830078125 45.145999908447266,269.4840087890625 C92.26100158691406,212.07899475097656 139.37600708007812,154.6750030517578 186.49200439453125,97.2699966430664 C225.531005859375,49.70399856567383 288.31201171875,-3.9519999027252197 292.82000732421875,-69.48200225830078 C297.2019958496094,-133.1929931640625 226.5760040283203,-170.41299438476562 181.7779998779297,-202.64100646972656 C124.7300033569336,-243.68099975585938 65.875,-283.5719909667969 0.15199999511241913,-308.4570007324219 C-5.281000137329102,-310.5140075683594 -10.765999794006348,-312.4639892578125 -16.29599952697754,-314.2969970703125"></path></g></g><g transform="matrix(1,0,0,1,325.5,173.5)" opacity="1" style="display: block;"><g opacity="1" transform="matrix(1,0,0,1,304.9630126953125,145.052001953125)"><path stroke-linecap="butt" stroke-linejoin="miter" fill-opacity="0" stroke-miterlimit="10" stroke="#FFFFFF" stroke-opacity="1" stroke-width="2px" d=" M-96.20700073242188,35.82899856567383 C-138.4010009765625,64.00700378417969 -178.13699340820312,101.06400299072266 -228.31100463867188,109.85099792480469 C-237.36599731445312,111.43699645996094 -247.01699829101562,111.81099700927734 -255.42999267578125,108.10399627685547 C-264.0870056152344,104.28900146484375 -270.4580078125,96.5530014038086 -274.9639892578125,88.23400115966797 C-289.9630126953125,60.547000885009766 -289.6189880371094,20.207000732421875 -276.4110107421875,-8.262999534606934 C-259.864990234375,-43.92599868774414 -227.37399291992188,-70.2239990234375 -191.80999755859375,-86.98200225830078 C-182.06700134277344,-91.5739974975586 -172.14100646972656,-95.68699645996094 -162.0659942626953,-99.33799743652344 C-162.0659942626953,-99.33799743652344 -162.0659942626953,-99.33799743652344 -162.0659942626953,-99.33799743652344 C-77.30799865722656,-130.052001953125 17.98699951171875,-128.0229949951172 103.81199645996094,-102.2750015258789 C233.68499755859375,-63.31399917602539 265.4309997558594,-15.694000244140625 274.0889892578125,10.281000137329102 C282.74700927734375,36.255001068115234 289.9630126953125,130.052001953125 197.60899353027344,80.98899841308594 C107.50399780273438,33.12099838256836 53.112998962402344,-38.097999572753906 -59.37300109863281,14.746999740600586"></path></g></g></g></svg>