<svg xmlns:xlink="http://www.w3.org/1999/xlink" xmlns="http://www.w3.org/2000/svg" id="Layer_2" data-name="Layer 2" viewBox="0 0 539.77 539.77" width="539.77"  height="539.77" >
  <defs>
    <style>
      .cls-1 {
        fill: #231f20;
      }
    </style>
  </defs>
  <g id="Layer_1-2" data-name="Layer 1">
    <g>
      <path class="cls-1" d="M264.43,55.42c-35.32,23.26-71.83,47.3-113.93,65.03l-3.19,1.33c-4.71,1.94-9.48,3.85-14.25,5.77-4.31,1.73-8.64,3.48-12.97,5.25,7.13,20,15.34,39.86,23.78,59.46,24.07-25.93,53.88-49.12,89.02-69.17,26.67-15.21,58.7-31.59,94.07-37.68,15.85-2.73,31.23-2.93,45.99-.77-1.37-2.34-2.88-4.53-4.54-6.55-30-36.53-57.85-53.06-103.99-22.67Z"/>
      <path class="cls-1" d="M32.1,186.33c-13.32,14.3-23.83,31.44-32.1,50.4v303.04H142c-37.83-33.37-63.11-84.2-68.44-139.01-6.6-67.83,9.73-129.12,48.52-182.16,5.52-7.55,11.59-14.85,17.98-22-8.79-20.34-17.38-40.98-24.81-61.8-30.49,12.67-60.5,27.21-83.15,51.53Z"/>
      <path class="cls-1" d="M382.06,91.65c14.91,37.88,3.46,100.09-31.33,160.69-40.43,70.43-38,145.62-36.29,166.98,.39,4.81,1.18,11.02,2.1,18.21,1.43,11.16,3.1,24.48,4.17,38.93,22.24-3.09,44.1-18.44,60.27-38.15l119.6-145.71c3.33-4.06,6.86-8.15,10.51-12.3-3.75-58.87-28.17-118-65.68-153.8-18.74-17.88-40.14-29.56-63.35-34.85Z"/>
      <path class="cls-1" d="M539.77,248.1V72.45c-8.43-6.31-17.19-12.29-25.71-18.09-2.83-1.93-5.61-3.82-8.33-5.69-1.94,8.19-5.51,15.64-11.56,20.75-12.54,10.6-32.4,8.8-59.03-5.35-17.11-9.09-32.61-19.11-47.6-28.8-21.85-14.12-42.46-27.42-64.65-35.29h-82.79c-8.63,2.9-17.67,6.72-27.19,11.6-16.49,8.44-32.49,20.05-47.96,31.28-19.1,13.86-38.66,28.03-60.18,37.25,3.45,15.96,8.09,31.89,13.57,47.73,4.26-1.74,8.52-3.46,12.77-5.17,4.76-1.91,9.51-3.82,14.22-5.76l3.15-1.31c41.65-17.54,77.96-41.46,113.08-64.59,54.75-36.04,85.96-6.65,110.91,23.73,2.68,3.27,4.92,7,6.92,10.96,25.59,5.03,49.14,17.42,69.64,36.98,37.32,35.62,61.96,93.74,66.87,152.19,2.48-2.78,4.93-5.53,7.51-8.4,5.4-5.99,10.92-12.13,16.37-18.41Z"/>
      <path class="cls-1" d="M375.84,90.39c-7.5-1.32-15.16-2.02-22.98-2.02s-16.52,.72-25,2.19c-34.57,5.95-66.09,22.08-92.37,37.07-35.45,20.22-65.34,43.69-89.31,69.93,1.71,3.95,3.42,7.9,5.13,11.82,4.89,11.24,9.74,22.37,14.34,33.38,6.19,14.8,12.56,29.72,18.94,44.36h0c11.75,26.98,24.06,54.22,36.58,80.98,3.09,6.59,6.07,13.5,9.1,20.52,12.3,28.49,25.03,57.96,48.38,76.35,11.63,9.15,24.23,12.57,36.84,11.94-1.06-14.37-2.73-27.64-4.14-38.73-.93-7.26-1.73-13.52-2.13-18.46-1.74-21.74-4.21-98.27,36.97-170.01,34.51-60.11,45.7-123.62,29.64-159.34Z"/>
      <path class="cls-1" d="M275.43,469.09c-24.4-19.21-37.39-49.29-49.95-78.38-3.01-6.97-5.98-13.84-9.04-20.38-12.54-26.8-24.87-54.09-36.64-81.11-6.39-14.66-12.77-29.61-18.97-44.42-4.6-10.99-9.43-22.1-14.31-33.32-1.38-3.18-2.76-6.38-4.15-9.57-5.67,6.45-11.1,13.01-16.06,19.79-38.01,51.97-54.01,112.05-47.54,178.56,5.41,55.71,31.87,107.18,71.26,139.52h163.89c2.98-19.47,3.06-39.27,1.96-57.51-1.07,.06-2.14,.13-3.21,.13-12.72,0-25.41-4.01-37.23-13.31Z"/>
      <path class="cls-1" d="M385.03,441.62c-17.07,20.8-40.22,36.96-63.94,40.16,1.12,18.34,1.04,38.28-1.9,57.99h53.55c5.05-3.15,10.11-6.48,15.19-10.1,66.25-47.21,111.86-124.02,122.02-205.49,1.48-11.91,1.9-24.09,1.49-36.32-2.34,2.7-4.63,5.39-6.81,8.05l-119.6,145.71Z"/>
      <path class="cls-1" d="M28.28,182.77c23.42-25.16,54.12-40,85.22-52.9-5.48-15.81-10.14-31.73-13.64-47.71-7.54,2.91-15.32,5.2-23.41,6.62-3.79,.66-7.29,1-10.54,1-5.29,0-9.89-.88-13.91-2.65-7.01-3.09-12.99-9.14-17.77-17.96C23.76,49.84,21.66,23.24,27.78,0H0V223.72c9.22-18.35,19.17-31.17,28.28-40.96Z"/>
      <path class="cls-1" d="M527.29,270.01c-3.72,4.13-7.33,8.14-10.82,12.09,.8,14.39,.41,28.74-1.33,42.72-10.33,82.9-56.75,161.07-124.17,209.11-2.84,2.03-5.68,3.96-8.51,5.84h157.33V256.04c-4.18,4.74-8.37,9.4-12.49,13.97Z"/>
      <path class="cls-1" d="M54.1,82.33c5.6,2.46,12.41,2.87,21.44,1.29,8-1.4,15.71-3.69,23.2-6.65-.31-1.55-.71-3.1-1-4.65-5.26-28.29-5.17-52.47,.23-72.33H33.21c-6.13,22.2-4.28,48.41,5.61,66.67,4.22,7.78,9.36,13.05,15.28,15.67Z"/>
      <path class="cls-1" d="M503.57,1.12c2.57,7.71,5.62,25.53,3.22,41.91,3.32,2.3,6.71,4.63,10.21,7,7.39,5.02,15.13,10.32,22.77,15.94V0h-36.61c.13,.37,.28,.75,.4,1.12Z"/>
      <path class="cls-1" d="M500.14,38.36c.6,.43,1.25,.87,1.86,1.3,1.54-13.66-.59-28.49-3.39-36.89-.3-.91-.65-1.84-1.01-2.78h-53.1c19.21,12.41,37.7,25.46,55.64,38.36Z"/>
      <path class="cls-1" d="M437.6,59.47c24.57,13.05,42.47,15.06,53.21,5.97,5.47-4.63,8.63-11.91,10.27-20.02-1.33-.93-2.71-1.88-3.99-2.8-20.01-14.39-40.7-28.97-62.29-42.61h-97.67c17.95,8.1,35.19,19.22,53.26,30.9,14.9,9.63,30.3,19.58,47.22,28.57Z"/>
      <path class="cls-1" d="M210.53,6.95c5.08-2.6,10.02-4.9,14.83-6.95H103.43c-5.57,19.32-5.78,43.18-.54,71.37,.22,1.19,.53,2.37,.77,3.56,20.67-9.03,39.68-22.81,58.23-36.28,15.63-11.34,31.79-23.07,48.64-31.71Z"/>
    </g>
  </g>
</svg>