<svg xmlns:xlink="http://www.w3.org/1999/xlink" xmlns="http://www.w3.org/2000/svg" id="Layer_2" data-name="Layer 2" viewBox="0 0 965.32 60.72" width="965.32"  height="60.72" >
  <defs>
    <style>
      .cls-1 {
        fill: #333;
      }
    </style>
  </defs>
  <g id="Layer_1-2" data-name="Layer 1">
    <g>
      <path class="cls-1" d="M79.28,30.36c0,4.12-.9,8.02-2.69,11.68-1.79,3.66-4.38,6.88-7.77,9.65-3.39,2.77-7.54,4.97-12.45,6.59-4.91,1.63-10.49,2.44-16.73,2.44s-11.82-.81-16.73-2.44c-4.91-1.63-9.06-3.83-12.45-6.59-3.39-2.77-5.98-5.98-7.77-9.65-1.79-3.66-2.69-7.56-2.69-11.68s.9-8.02,2.69-11.68c1.79-3.66,4.38-6.88,7.77-9.65,3.39-2.77,7.54-4.97,12.45-6.59C27.82,.81,33.4,0,39.64,0c4.18,0,8.03,.39,11.56,1.18,3.53,.79,6.74,1.86,9.65,3.22,2.9,1.36,5.47,2.97,7.69,4.84,2.22,1.87,4.1,3.92,5.62,6.15l-12.62,6.43c-1.74-2.71-4.42-4.98-8.06-6.8-3.64-1.82-8.25-2.73-13.84-2.73-4.12,0-7.75,.49-10.87,1.47-3.12,.98-5.74,2.29-7.85,3.95-2.12,1.66-3.7,3.57-4.76,5.74-1.06,2.17-1.59,4.48-1.59,6.92s.53,4.75,1.59,6.92c1.06,2.17,2.65,4.08,4.76,5.74,2.12,1.66,4.73,2.97,7.85,3.95,3.12,.98,6.74,1.47,10.87,1.47,6.13,0,11.16-1.04,15.1-3.13,3.93-2.09,6.72-4.73,8.34-7.94h-29.06v-11.07h44.93c.11,.65,.19,1.32,.24,1.99,.05,.68,.08,1.37,.08,2.08Z"/>
      <path class="cls-1" d="M159.18,20.59c0,2.5-.33,4.69-.98,6.59-.65,1.9-1.51,3.54-2.56,4.92s-2.25,2.54-3.58,3.46c-1.33,.92-2.67,1.66-4.03,2.2l9.93,21.08h-15.3l-9.12-19.45h-29.87v19.45h-14.33V1.87h51.2c1.52,0,3.35,.27,5.49,.81,2.14,.54,4.19,1.51,6.15,2.89s3.61,3.28,4.97,5.7c1.36,2.42,2.04,5.52,2.04,9.32Zm-14.33,0c0-1.36-.24-2.45-.73-3.3-.49-.84-1.09-1.49-1.79-1.95-.71-.46-1.42-.77-2.16-.94-.73-.16-1.32-.24-1.75-.24h-34.76v12.94h34.76c.33,0,.84-.09,1.55-.28,.7-.19,1.42-.53,2.16-1.02s1.37-1.15,1.91-1.99c.54-.84,.81-1.91,.81-3.22Z"/>
      <path class="cls-1" d="M241.97,30.36c0,4.12-.87,8.02-2.6,11.68-1.74,3.66-4.25,6.88-7.53,9.65-3.28,2.77-7.29,4.97-12.01,6.59-4.72,1.63-10.07,2.44-16.04,2.44s-11.31-.81-16.04-2.44-8.72-3.83-12.01-6.59c-3.28-2.77-5.79-5.98-7.53-9.65-1.74-3.66-2.6-7.56-2.6-11.68s.87-8.02,2.6-11.68c1.74-3.66,4.25-6.88,7.53-9.65,3.28-2.77,7.29-4.97,12.01-6.59,4.72-1.63,10.07-2.44,16.04-2.44s11.31,.81,16.04,2.44c4.72,1.63,8.72,3.83,12.01,6.59,3.28,2.77,5.79,5.98,7.53,9.65,1.74,3.66,2.6,7.56,2.6,11.68Zm-15.06,0c0-2.44-.48-4.76-1.42-6.96-.95-2.2-2.39-4.14-4.31-5.82-1.93-1.68-4.34-3.01-7.24-3.99-2.9-.98-6.28-1.47-10.13-1.47s-7.23,.49-10.13,1.47c-2.9,.98-5.32,2.31-7.24,3.99-1.93,1.68-3.37,3.62-4.31,5.82-.95,2.2-1.42,4.52-1.42,6.96s.47,4.76,1.42,6.96c.95,2.2,2.39,4.14,4.31,5.82,1.93,1.68,4.34,3.01,7.24,3.99,2.9,.98,6.28,1.47,10.13,1.47s7.23-.49,10.13-1.47c2.9-.98,5.32-2.31,7.24-3.99,1.93-1.68,3.36-3.62,4.31-5.82,.95-2.2,1.42-4.52,1.42-6.96Z"/>
      <path class="cls-1" d="M316.61,30.36c0,4.12-.79,8.02-2.36,11.68-1.57,3.66-3.83,6.88-6.76,9.65-2.93,2.77-6.49,4.97-10.66,6.59-4.18,1.63-8.87,2.44-14.08,2.44s-9.9-.81-14.08-2.44c-4.18-1.63-7.75-3.83-10.7-6.59-2.96-2.77-5.22-5.98-6.8-9.65-1.57-3.66-2.36-7.56-2.36-11.68V1.87h14.33V30.36c0,2.44,.39,4.76,1.18,6.96,.79,2.2,1.98,4.14,3.58,5.82,1.6,1.68,3.63,3.01,6.1,3.99,2.47,.98,5.38,1.47,8.75,1.47s6.27-.49,8.71-1.47c2.44-.98,4.46-2.31,6.06-3.99,1.6-1.68,2.79-3.62,3.58-5.82,.79-2.2,1.18-4.52,1.18-6.96V1.87h14.33V30.36Z"/>
      <path class="cls-1" d="M381.81,58.85l-41.19-39.8V58.85h-14.33V1.87h14.33l41.19,39.8V1.87h14.33V58.85h-14.33Z"/>
      <path class="cls-1" d="M481.42,30.36c0,3.91-.8,7.6-2.4,11.07-1.6,3.47-3.94,6.5-7,9.08-3.07,2.58-6.82,4.61-11.27,6.1-4.45,1.49-9.55,2.24-15.3,2.24h-39.4V1.87h39.4c5.75,0,10.85,.75,15.3,2.24,4.45,1.49,8.21,3.53,11.27,6.1,3.07,2.58,5.4,5.6,7,9.08,1.6,3.47,2.4,7.16,2.4,11.07Zm-15.06,0c0-2.28-.42-4.44-1.26-6.47-.84-2.04-2.14-3.8-3.91-5.29-1.76-1.49-3.98-2.67-6.63-3.54-2.66-.87-5.81-1.3-9.44-1.3h-24.75V46.97h24.75c3.63,0,6.78-.43,9.44-1.3,2.66-.87,4.87-2.05,6.63-3.54,1.76-1.49,3.07-3.26,3.91-5.29,.84-2.04,1.26-4.19,1.26-6.47Z"/>
      <path class="cls-1" d="M583.04,20.59c0,2.5-.33,4.69-.98,6.59-.65,1.9-1.51,3.54-2.56,4.92s-2.25,2.54-3.58,3.46c-1.33,.92-2.67,1.66-4.03,2.2l9.93,21.08h-15.3l-9.12-19.45h-29.87v19.45h-14.33V1.87h51.2c1.52,0,3.35,.27,5.49,.81,2.14,.54,4.19,1.51,6.15,2.89s3.61,3.28,4.97,5.7c1.36,2.42,2.04,5.52,2.04,9.32Zm-14.33,0c0-1.36-.24-2.45-.73-3.3-.49-.84-1.09-1.49-1.79-1.95-.71-.46-1.42-.77-2.16-.94-.73-.16-1.32-.24-1.75-.24h-34.76v12.94h34.76c.33,0,.84-.09,1.55-.28,.7-.19,1.42-.53,2.16-1.02s1.37-1.15,1.91-1.99c.54-.84,.81-1.91,.81-3.22Z"/>
      <path class="cls-1" d="M591.95,58.85V1.87h68.62V14.16h-54.29v10.26h47.78v11.07h-47.78v11.07h56.41v12.29h-70.74Z"/>
      <path class="cls-1" d="M715.67,58.85h-18.23L667.72,1.87h15.87l22.95,44.93L729.5,1.87h15.87l-29.71,56.98Z"/>
      <path class="cls-1" d="M751.99,58.85V1.87h14.33V58.85h-14.33Z"/>
      <path class="cls-1" d="M775.23,58.85V1.87h68.62V14.16h-54.29v10.26h47.78v11.07h-47.78v11.07h56.41v12.29h-70.74Z"/>
      <path class="cls-1" d="M944.23,58.85h-20.35l-15.55-42-15.55,42h-20.35L851.36,1.87h15.55l16.36,44.93L899.55,1.87h17.58l16.28,44.93L949.69,1.87h15.63l-21.08,56.98Z"/>
    </g>
  </g>
</svg>